<svg viewBox="0 0 512 512" xmlns="http://www.w3.org/2000/svg">
<g id="camel">
	<path d="m314.8 319.8c.9-3.1 4.1-9.5 7.6-10.9 4.9-7.1 4.9-22.8 9.7-30.3-4.5 16.3.9 42.1-5.4 60.1-1.2 28.3-38.9 55.7-10.4 83.1 3.1 2.4-2.5 8.7 2.5 32.4-2.8 12.7 25.6 36.8 18 48.4-35.1 6-2.4-18.6-38-71.3-13.6 18.9 6.7 50.4-7.8 69.2-26.2-6.1-2.1.3-9.2-65.4-3.5-12.8 9.4-18.3 3.6-31.3-5.2-10-27.2-63.2-28.2-27.5-41.1 70.5 11.8 128.4-16.9 122.5-9.5-1.3-3.5 7.4-13.7-88.1 3.4-14.6 12.1-29.4 12.1-47.2-3.1-22.3-11.3-26.1-15 3 .2 1.9-6.3 32.4-9.9 9.4-1.8-4.4-16.8 127.7-19 53.8-2.7 35.5-11.6 17.7 2.4-48.5 2.8-26.8-7.5-54.8-6-84.6-11.6-.9-3.9-9.6 10-29.8-3.5 5.2-2.2 14.7-1.9 19 0 .7-7.9-4.7-1.7 5 8.8-19 18.7-43.4 30-65.6-5.8 8.6-10.8 17.6-18.8 28.1 62.3-105.7-34.7 13.5 4-99.2 3.1-4.6 2.6-20.1 14.5-15 2.6-10.8-8.9-28.8 2.4-40.6 27-9.8 31.7.5 28.6 33.8-.2 8.4 27.2 8.5 35.8 53.2 6.8-4.5-7.4-31.6-2.5-38.9 18.9-3.4 58.7-19.3 62.4 15.9-37.5 34.8-11.2-.4-21.9 114.2-2.5-10.4-1.3-29.4-3.1-43.6-1.5 27.2-20.2 52.9-26 81.1 8.9-6.3 18.5 20.4 4.6 2.7-2.4.6-2.4.6-5.5-.9-.5 2.5-1.4 4.9-1.2 7.6 5-1.6 14.1 12.1 17.2-4.8-1.2.3-2.3.7-3.3 1zm-51.7-174.5c.9.1 1.8-7.4 0 0-.7-.4-.1 2.8 0 0zm-6.6 181c-.1 14 4.1 29.8 12.3 44.3-5.2-19 21.2-5.8 3.3-6.5 1.2 14.2 9.6 29 21.4 41.2-1.3-1.1-6-17.8 1.6-12.4 2.4 8.6 2.1 18.2 9.8 27.7 7.7 6.8-7.4-34.2-17.5-36.4-1.8-12.1 6.3 4.4 3.6-5.6-4.9-1.8-8-30.9 5.8-40.4-12.9-14.1 2.1-46.3-20.9-48.7 3 20.6-24.5 15.6-24 36.2 1 1.8-1.5 8.3 4.6.6zm38.6-8.3c3.9-38.5 40.5-77.5 27.2-118.9-4.1 6.1-18.7 10.4-18.4 20.1 2.2 1.4 12.8 64.3-8.6 60.3-.3 8.3-9.3 27.4-.2 38.5zm-99.5-18.6c-3.2 8.5 8.9 8.6 11.9 14.4-12.9 8.7-19.4-38.7-5.7 61.3 1.8-1.1 4.4-4.6 6.7-8.2-3.4.1-.7-8.3 1.3-2.2 1.2-.9 1.2-.9 1.6-2.7-2.1-2.3-1.3-1-1.4-7.8-7.6 1.3-2-11.2 1.8-3.4 4.2.1 3.5 1.9.6 9.6.2 1.4 12.1-21 6.8-28.4-1.1-1.2-13.8 3.1-12-3.4 3.6-3.2 7.4-18.4-2.6-19.9-5.6-.5-5-.7-9-9.3zm106.4-43.4c2-9-15.9-5.6-20.9 4.3-.9-1.5-.3-.4-1.6-3.7-24.3-61.4-34.5-4.7 6.6 19.3.4-4.3-3.3-8.4-4.1-14.5 4.2.4 4.5-6 20-5.4zm-97.9 33.5c12.7 5.4 11.1-26.6 23.6-48.3 3.9-6.8 12.6-13.2 9.2-23.2-15 14.6-25.9 45.5-32.8 71.5zm114.1-117.8c4.2-6.5 13-3.4 24.8-3.1-1.3-1.6-22.6-6.5-7.3-10.2-1-4.8 3.4-7.6 8.6 1 1.5-1.9-1-20.8-7.1-12.8 10.5 4.1-11.1 10.1-5-.9-8.4-.9-14.7 14.8-14 26zm-18.2 44.4c-3.2-1.7-33.4 14.6-21.8 23.5 10.4-5.4 27.5-5.5 21.8-23.5zm-2.6 198.9c-.1 0-.2.1-.3.1.7 13.9 16.8 25.6 24.3 71 2.3-2.6.3-.1 8.3 1.4-7.8-15.8-16.5-33.5-15.9-53.9-2.4 3.3-12.6-4.5-16.4-18.6zm-36.3-156.7c-3 7.9-6 18.7-9.5 29.6 5.7 4.8 22.4-18 9.5-29.6zm17.4-12.7c.5 11.5 2.9 7.2 21.5 1.8-3-8.4-1.4-16.9-21.5-1.8zm19.3-82c11.4 11.1 41.1-35.8-4.3-13.2 3.7 3.8 3.1 4.6 4.3 13.2zm-14.6 323c8-4.1 13.9-12.7 2.6-46-.4 12.1 2.9 28.3-2.5 42 1 1.2.3 2.5-.1 4zm-27.2-361.4c-2.2 2.3-6-2.6-21.2 3.5.8 11 25.3 12.7 21.2-3.5zm-32.8 76.7c10.7 3.2 26.6-22.1 1-7.7-1.3.3-13.8 8.4-1 7.7zm19.7 138.5c2-.6 3.8-1.2 8.4-1.6-1.2-4.3.1-8.9-2.1-15.1 1.7 10.3-29.1 5.2-16.5 10.9.9 1.2 10.6-.1 10.2 5.8zm34.4-63.3c-6.3 3.7-11.1 17.8-17.2 26-9.8 14 15.3-3.6 17.2-26zm-42.8-64.4c6.3.2 15.3-3.8 22-10.8-5.6 1.3-25.4-2.4-22 10.8zm3.8 276.7c-3-1.1-1.2-2.9 4.4-3.7-2.2-4.6-.7-16.2-7.2-21.7-.1 5.2.5 12 .2 26.8 1.3.3 1.9-.5 2.6-1.4zm-16.1-150.3c.8.9-2 12.1-6.6 28.9 5-5.9 13.1-19.3 6.6-28.9zm69.6-58.9c-7.7-7.1-21.3 10.8-5.1 6-.2-1 6.5.2 5.1-6zm-41.7-88.7c.8-.1-2.3-10.6 1.5-7.4.2-.3 3 10.9 5.6 4.1-1.4.1-4.9-2.5-1.3-4.3-.7-1.1-1 1.4-3.8-2.9-4.2.1-18 11.5-2 10.5zm-19.5 224.5c-.9 10.4-.6 23.1 3.8 36.7-1.7-10.7 1.3-20.8-3.8-36.7zm71.3-17c1-5 6.3-10.8-4.2-20.6.4.9-1.9 5.5 4.2 20.6zm-12.2-128c-1.3 6.4 7.9 8.3 10.7-.1 1.3-2.3-2.5-5.8-10.7.1zm-1.5-95.5c-8.8-.3-9.4 4.3 1.4 12.8-.3-4.7.6-.9-1.4-12.8zm-19.6 8.1c-.1.1-.2.2-.2.3 1.4 1 .2 1 6.5 1.4.3-1.9 3.2-7.7-5-13.2-.6 1.2-1.2 2.3-1.9 3.5 2.1.5 3.2 2.7.3 4.8 1.1.4 4.4 3.7.3 3.2zm25.7 194.3c0-3.7 4.1-12.3-.6-16.4-4.1.4-3.8 8 .6 16.4zm-48.1-77.5c3.9-.7 4 1.4 12-8.4-5.1-1.1-9.2.1-12 8.4zm76.8 35.9c3.2-4 6.6-3.3 1.1-14.7-.7 1.7-1 3.5-3.4 7.9 1.4.4 4.3 2.8.8 4.4.5.8 1 1.5 1.5 2.4zm-91.2-207.4c-.1 0-.3 0-.4 0-4.3 6.4 8.3 17.4 15.4 11.1-5.7-.9-13.4 1.5-15-11.1zm-27.2 171.3c0-1.3 3.1-8.8 5.2-1.9 8.8-10.9-14.1-5.8-5.2 1.9zm64.2-31.6c-1.3 3.5-3.1 8.9-4 14.9 1.1-2.7 10.2-9.8 4-14.9zm30.6-97.4c3.1 0 14.7.1 14.3-5.8-4 3.4-7.2 2.9-15.2 3.5.3.9.6 1.7.9 2.3zm-9.4 41.1c2.2.2 7.8-2.1 9.7-7.1-.7.2-4.1-2.8-9.7 7.1zm-43.1-91c.6-2.9 5.6-10.2-8.1-4 4.4-2.1 4.6 5.1 8.1 4zm31.8 69.3c2.8.6 5.2 1.5 7.7 1.3 0-.7-6.1-11.9-7.7-1.3zm-38.3-85.2c1.1.7 10.1 5.7 8.6-1.1-2 1.1-3.3-2.7-8.6 1.1zm55.8 157.7c-.9-3.3-8.6-.5-8.3 3.4 1.6-.5 3.8.8 8.3-3.4zm25.8 74.9c-.2-1-1.3 1.3-2.1-3.2-1.1.3-5.6 2.8-5.9 5.7 1 .4 2.9-3.5 5 .3 1.4-.6 2.4-1.4 3-2.8zm-18.6-133.8c3.8-3 10-6.4 16.4-11.4-4.5 0-11.5 6.2-16.4 11.4zm-47.2 59.2c-.3-1.8 3.7-3.9 2-10.4-3.5-1.3-1.6 5.3-2 10.4zm-5.8-52.1c1.9-.9 6.4-2.2 9.3-5-1.6-1-7.8 1.9-9.3 5zm62.7 133.6c-1 2.5-.3 10.2 3.2.7-1.2-.2-2.2-.4-3.2-.7zm-77.1-233.4c-.3 1.4-1.2 2.6-.9 4.2 2.6-.8.7-1.2 5.9-2.6-1.5-1.3-.8-1-5-1.6zm17.4 137.4c-.8-3.4-1.5-4.4-3.8-5-.2 1.1-.1 4.3 3.8 5zm47.8 12.9c-2.9-1.4-2.2 5.5 1.9 1.4 0-.2.7-1.2-1.9-1.4zm-51.2-149c1.3.3 2.4.5 3.4.7.5-1.4.5-1.8 0-3.2-1.4.4-2.4 1-3.4 2.5zm37.6 94.3c-1.3.9-2.6 1.8-4.9 4.8 1 .4 4.3-1.5 4.9-4.8zm-11-.7c1.8-.9 3.5-1.6 5-2.6.1.1-2.1-2.6-5 2.6zm-40.1-87c-.9.9-3.2 4.3.8 4.4-.1-.8-.2-1.4-.8-4.4zm-2.3 283.8c-.7.9-1.3 2.7-1.5 6.2 1.1-1.3 1.4.6 1.5-6.2zm45.5-182.7c-.2 1.4-.6-.1-1.2 4.4.1-.7 2.1 1 1.2-4.4zm-34.6-74.5c-.8-.1-.1-.7-3.4.2.5-1 1.6 3.7 3.4-.2zm7.8-24c.4-.8 3.9-1.6.9-3.6-.3.7.2 0-.9 3.6zm-16.2 267.5c.1-.3-2.4 5.2.7 2.8-.3-.7.2-.4-.7-2.8zm39.1-189.4c-.8-.2-2.5-1.6-2.4 1.4 1-.1 1.6-.6 2.4-1.4zm-44-16.9c-1.2.8-.2 0-.8 3.1 1 0 .9.2.8-3.1zm23.4 59.7c.3-1.9.2-2.2-.6-3.4-.4 1.9-.4 2.3.6 3.4zm-20.4 182.5c.7-1.6.7-2.3 0-3zm79.3 2c-.1 0-.3.1-.4.1-.7.1 1.7 5.3.4-.1zm-48.5-255.3c1.1.1 1.8 0 2.3-.9-1-.5-1.6-.1-2.3.9zm36.8 3.5c-1.6-.2-1.6-.2-2.5.2.8.5 1.5.4 2.5-.2zm-56-25.9c1.2.2 1.2.2 2.4-.7-.9-.4-1.6 0-2.4.7zm-11.3-6.5c.1.5.3 1.9 1.7.8-.6-.3-1-.5-1.7-.8zm51.1 59.4h2.3c-1.2-1-1.3-1-2.3 0zm45.3 18.4c-.4.9-.7 1.5-.4 2.3.8-.7.7-1.3.4-2.3zm-89.6 157.3c-.4.3-.6.3 0 0 .5-.5-2.2-1 0 0zm-14.6-201.1c.1-1.2.1-1.2-.8-1.7.3.5.5 1 .8 1.7zm-31.3 228.7c.3-.3.5-.1.2-.9-.2.2-.6.1-.2.9zm143.4-247c-.4-.2-.6-.3-.9-.5-.1 0-.4 1.6.9.5zm-37.3 169.9c-.4.5-.5.6 0 0 0-.4-1.9-.1 0 0zm-33.7-120.1c.1-.2-.8-1.4-.4.1.1.1.1.2.4-.1z"/><path d="m191 474.7c-.1-3.6 8.9-3.3 2.6 1.8.7.9 1.5 1.1 2.6 1.4 1.3-.7-.4-4.6 2.1-5.3-.9 6.6 7.7 27.8-9.7 21.6-1-1.3-13.1 2.3-10.8-8.2 2.5-11.7 9.1-22.1 13.5-33.5.5 5.2-3.9 14.6-.3 22.2zm-9.2 8.6c1.2-.9 7.4-1.7 7.2-4.7-2.9.2-5.6-2.5-7.2 4.7z"/><path d="m196.9 460c-3.2 4.3-7.7-6 1.1-2.2 1.9 6.4-.8 21-1.1 2.2z"/><path d="m191.3 464.4c-1.2-4.9 9.4.5 2.3 4.7-1.7.5-2-1.3-2.3-4.7z"/><path d="m320.7 292.3c1.5-.1 4.2 6.3-.2 3.8.1-.7-1.7-1.9.2-3.8z"/><path d="m322.5 284.8c1.5-7.9 2.5 7.9 0 0z"/><path d="m256.5 326.3c-1.6-3.7 15.6-11.2 8.6 1.1-3-1.2-4.1 0-8.6-1.1z"/><path d="m284.9 328.4c-.8-4.9 7.8-5.3 5.8 6.5-.1 0-3.1 3.9-5.8-6.5z"/><path d="m265 318c.9.3 9.8-10 12.2-4.9-.4 2.9-9.1 9.5-12.2 4.9z"/><path d="m280.6 341.5c.5 4.7-8.3 13.3-5-1.2-2.6-1.3 2.3-4.1 5 1.2z"/><path d="m280.1 377.6c-3.1-3.1 8.5-2.6 4.5 6 .4 2.1-6.5 1.4-4.5-6z"/><path d="m278 328c4-2 1.7 17.8-2.2 4.7-.6-1-1.9-5.4 2.2-4.7z"/><path d="m265.8 337.3c-1.5-3.7 9.4-7.2 5.6-1.1-2.2.4-2.4 9.8-5.6 1.1z"/><path d="m281.8 349.6c4.4-13.3 6.7 14.3 0 0z"/><path d="m267.3 326.7c.3 1.8.6 2.7 0 0 .5-9.2 11.1 2.1 0 0z"/><path d="m277.3 321.1c4.7-.7.9 10.1-2.1 2 .1-.3-.4-1 2.1-2z"/><path d="m275.1 354.8c-1.1-4.2 9.8-1.2 1.3 2-.2.1-1.4-.3-1.3-2z"/><path d="m263.7 345.9c-.2-1.7-.7-2.4 0 0-.1 4.5-6.5-1.6 0 0z"/><path d="m282.3 316.6c-1.3.5-1.2 1 0 0 2.8-.9 2.5 8.5 0 0z"/><path d="m267 350.1c.7 1.4-4.5 5.2-2-1.3.2-.1 1.8-1 2 1.3z"/><path d="m282.2 372.2c0-.9 0-1.1 0 0-.3 4.8-5.7-2.8 0 0z"/><path d="m286.9 342.9c.2 3.4-5.1 2.3-1-1.4.1.2.7-.1 1 1.4z"/><path d="m284.7 323.8c-.2-1.2-.8-1.5 0 0-.1 3.5-5.3-1.1 0 0z"/><path d="m276.8 368.8c.1-3.4 5.1-2 .4 1.3 0-.2-.4.1-.4-1.3z"/><path d="m283.1 331.6c.4-.4.4-.7 0 0-.8.5-1.3-2.7 0 0z"/><path d="m319.2 238.7c.6.9-7.1 15-8.7 9.4 2.5-2.9-1.6-14.5 8.7-9.4z"/><path d="m318.5 228.4c.8 2.3-9.1 7.6-2.2-.5.2-.2 1.1-1.6 2.2.5z"/><path d="m310.6 255.8c-.2-2.4 4-.2.7 1.6-.3-.1-.6-.1-.7-1.6z"/><path d="m298 291.8c.6-.1.8-.3 0 0-2.5-1.1 4-5.2 0 0z"/><path d="m205.2 343.4c6.1-11.7 13.1-1.5 0 2.1-.2.2-5.2-5.5 0-2.1z"/><path d="m199.2 328.2c1.8 0 2.2 7.9-.9 3.7.2-.8-.9-.4.9-3.7z"/><path d="m200.6 341.1c1.4-.7 1.8-1.4 0 0-2.2-.3 1.2-5.8 0 0z"/><path d="m310.3 150.3c6.8 3.5-1.8 25.3-8.2 2.3-1.7-5.9 19.7-7.1 8.2-2.7z"/><path d="m248.5 129.2c1.2 2.8-7.9 5.9-2.7-2.2-.2.1 1.8-2.3 2.7 2.2z"/>
</g>
<g id="arched">
	<path d="m210.3 16.5c8.3-2.3 19.7 31.4 23.2 22 5-8.2 6.4-20.2 13.7-26.4 13.8-1.4 8.9-2.3 9.7 10.5.6 10.5 1.5 19.8 2.4 31.2 3.1 65.9 45.9-97.9 49.4-10.2 2.2 12.2 2.8 26 6.1 38.7-4.1.7-14.1-.6-17.2-4.2 4.4-4 4.2-9.3 1.2-15.2-4.1-2-8.4-1.3-13.8-2.9-4.3-2-7.8 5.4-8.5 10.2 0 1.5 2.9 4 .2 5-12.3-4.9-33.5 3.9-26.9-6.1-4-68-3.5-30.8-19.1-11.5-30.8-40.3-17.9-25.6-16.6 14.1-.4 2.9 5.9 2.7 3.8 5.8-.3.1-15.1 3.9-13.3-.8 3.4-4.9-1.3-27.7-1.6-35.9-.8-6 .2-11.1-1.7-17.7-8-7.3 2.8-5.2 9-6.6zm88.5 34.9c-1.7-3.1.3-13.4-3.8-14.9-1.9 4.5-10.2 12.7-8.3 17.1 2.3 0 13.5 5.6 12.1-2.2z"/><path d="m455.1 354.9c4.4 9.6-16.2.4-9.5-3.2 16.6-12.8-4.1-13.9-12.8-19.1-4.5-2.7-7.9 11.5-7 15.5 3.1 8-4.9 7.5-9.4 2 3.8-11.5 8.6-23.8 15-34.1 2.5-10.2 3.3-26.7 8.5-33.3 9.3 8.7 41.3 9.7 51.1 13.3 11.6-2.2 7.9-1.1 5.6 9.9-1.4 11.6-9.8-1.5-16.9-1.6-39.6-8.3-39.2-13-40.5 6.3 8.8 15.4-8.6 1.5-4.4 9 18.5 9.7 39.5 22.5 51.4 20.7 2.8 3.9-11.7 29.3-13.3 33.6-1.1 2-12.6-2.9-9.6-5.3 6.4-2.4 10.4-8.8 12.6-16.1-.9-3.7-13.1-6.8-17.5-8.4-2.5 2-2.5 7-3.3 10.8z"/><path d="m56.4 288c2.5 13.6-1.1 16.4 13.4 16.9 2.1-.6 3-4.6 5.7-2.9 2.1 8.6 4.1 17.4 9.3 25.8.9 4.3-3.6 0-7.1 1.5-20.5 9.1-39.8 10-48.3 21-1 .8-2.2.2-2.7-1.6-6.3-20.1-6.2-9.1 8.7-15.2 11.9-5.4 46.3-13.5 40.6-18.6-9.5-8.4-67.9-7.5-63.3-17.6.8-5.1 8.2-6 12.8-9.2 51.8-24.5 41.2-34.5 45.9-8.6-.7 2.5-3.2-1.1-5.7-.4-3.1 2.3-10.2 3.2-9.1 8.9-.1 0-.1 0-.2 0zm-7.1 12.8c4 1.8 2-12.7-1.2-12-19.8 9.8-20.1 9.2 1.2 12z"/><path d="m117.8 60.5c20.6.2 41 22.5 32 43.8-5.3 9.8-16.7 17.1-26.2 23.5-5.7-16.8-25.8-35.2-36.8-48.9 8.9-8.1 20-18.6 31-18.4zm23.6 37.6c-.3-17.1-24.4-40.1-39.9-23.7-2.8 5.2 18.1 24 19.6 28.3 4 3.9 5.3 9.3 10.5 11.4 5.4-2.3 10.1-9.8 9.8-16z"/><path d="m467 255.9c-44.4-.5-38.9-51.4-.3-53.4 47.9.9 42.8 52.9.3 53.4zm5.6-41.4c-10.1 0-23.7 2.3-29.8 12.6-4.6 17.8 26.4 20.5 36.5 15.4 24.6-9 15.6-29.1-6.7-28z"/><path d="m407.1 103.9c-9-3.8-9.6 25.5-11.7 31.5-21.5-4.9 4-32.3-5-40.1-22.4 9.3-8.1 34.7-29.9 10.6 15.1-8.1 25.4-25.7 38.3-39.2 1.6-7.3.9-7 8.8-2 17.6 10.5 25.5 39.5-.5 39.2zm7.2-20.6c-.9-6-6.3-13.3-11.9-4.1-2.7 4.7-9.8 7.2-8.3 12.5 8 7.9 19.9 3.1 20.2-8.4z"/><path d="m41.2 262.9c-39.1.8-37.8-62.7-13.8-47.2-1.8 4.5-6.9 6.3-10.3 10.6-6.1 17.5 21.1 25.6 34.3 22.5 10.6-1.4 21.6-13.9 12.9-23.2-5.9-.8-12-.1-18.5-.8-3.7 0-6.4 5.3-5.8-3.1 1.3-2.6-1.6-10.6 3.1-11.5 7 6.8 19.1 3.6 28.2 8.1 9 20.9-7.4 45.6-30.1 44.6z"/><path d="m62.4 191.7c9.2 2.1 27.8-10.5 18-19.3-19-10.6-26 .1-20.2-11.6 4.6-8.4 2.3-10 10.4-2.8 5.5 3.1 13.6 4.1 19.3 8.6 3.9 17.9-11.8 38.6-31.1 37.7-46.1-2.8-32.9-70-10.6-53.4 2.8 1.9.9 2.9-3.7 4.4-25.8 9-.7 38.8 17.9 36.4z"/><path d="m323.9 77.6c.5-15.2 11.1-28.1 17.5-41.9-2.1-13.2 7.1-3.7 14.3-.3-7.1 7.7-39.3 57.3-8.4 55 8.7 2.7 25.7-41.1 24.9-45.5 1.6-3.4 8 1.7 11.7 3.3-12.2 15.4-18.7 40.6-29.8 48-11.6 7.2-32-4.8-30.2-18.6z"/><path d="m436.1 421.3c-1.2-11.5-50-55.4-28.7-55 15.1 3.6 28.1 11.9 43.8 15.8 5.1 2.6 12.7-.7 15.3 4.4-3.1 3.7-6.6 11.6-11.9 13.2-2-2-.3-6.3-4.5-7.1-9.9-2.1-21.9-9.9-31.5-9.5 7.1 11.2 17.8 24.8 26.3 32.2-1.4 1.5-9 13.8-8.8 6z"/><path d="m459.4 123.8c3.4-.2 23.1 34.5 17.7 33.2-48.5 5.9-72.3-5.3-46.8 20.9 5.5 1.5 4.2 3.8-1.5 6.1-6.4 6-13.7-19-16.8-21.8-1-3.6-6.3-7.1-3-10.4 8.6-1 17.6-1.3 27.3-1.7 24.2-3.6 40 5.4 23.2-16.5-7-5.7-12.7-3.2-.1-9.8z"/><path d="m47.4 385.9c7.8 2.7 12.1-5.2 17.2-10.7.6-2.1 18.1-17 11.2-16.1-11.2 2.8-23.5 5-34.8 8.9-1.7 1.3-1 4.9-4 4.5-1.8-1-9.5-13.4-2.7-11.4 43.4-2.9 93-33.6 39.2 19.1-22.7 20.4-12 32.9-26.6 9.5-.7-1-1.5-3.6.5-3.8z"/><path d="m417.5 442.3c-7.8-15-23.9-27.1-35.8-40.5-.8-2-7.1-1.7-4.8-5.2 3.1-2.2 6.7-9.5 11.5-9.5 1.4 9.9 10.4 15 17 22.9 6.5 6.6 11.1 12.7 18.5 19 11.7 0-1.5 9.7-6.4 13.3z"/><path d="m426.2 190c13-3.3 31.5-9.1 46.3-15.1 13.3-4.4 8.3-14.4 16.3 8.3-70.9 14.3-52.6 34.8-62.6 6.8z"/><path d="m405 150.3c-1.4-.3-12.7-12.5-7.8-13.4 9.7-3.2 17.4-12.5 26.5-18.6 7.4-6.3 14.6-10 18.4-18.6 2.2 1.1 12.5 13.5 8.9 14.6-10.2 1.7-19.1 13.1-28.3 18.7-9.4 7.4-13 7.7-17.7 17.3z"/><path d="m135.3 399.2c-10.5 5.1-19.8 18-29.1 26.5-17.8 14-5.5 26.5-24.3 5.9 10.1-3.3 17.6-13.4 25.5-21.8 4.5-5.5 10.5-10.2 14.6-16.8-1.6-12.5 10.4 2.1 13.3 6.2z"/><path d="m154.4 36.9c-1.3 9.2 7.4 18.9 10.8 28.1 4.6 10 8.9 17.8 15.1 25.2-3.2.9-17.7 13.1-13.8 1.3-2.6-8.4-7.4-15.5-11.3-24-5.2-7.8-6-18.1-14.3-22.4-.6-.2-2.6-.5-1.6-2.3 2.2-.9 14.3-10.1 15.1-5.9z"/><path d="m52.3 127.9c-8.5 3.9 2-14.2 5.5-12.9 9.6 14.3 29.3 21.2 43.1 32.1 1.6 1.6 7.4-1.3 5.3 3.2-1.6 1.2-7 13.4-9.6 9.4-3-6.7-12.8-10-18.9-15.4-9.2-5.3-15-12.9-25.4-16.4z"/>
</g>
</svg>
