<svg xmlns="http://www.w3.org/2000/svg" viewBox="0 0 1230 724"><path fill="#452f16" d="M32 0h1168v686l-584-66-584 66z" class="shadow"/><path fill="transparent" stroke="#e5ceaf" stroke-width="8" d="M1178 0v657l-562-61-562 61V0" class="shadow"/><g fill="#e5ceaf" class="shadow"><path d="m118 392 4-1c10-4-30-5-20 0 9-1 4 13 5 30-1 16 3 24-5 24-10 4 30 5 20 0-6-1-5-3-5-5v-41c0-5-1-4 1-7zm84-3c1-2-25-3-16 2h3c8-2-14 46-13 48 1-3-19-48-14-48h4c9-4-29-6-20 0h2c6 5 17 52 21 57 9-1 9 3 11-7l15-45c1-2 1-4 4-5l2-1 1-1zm17 56h-2c-3 1-1-29-2-35 2-5-8-1-13 1 0 0-3 1 0 2h3c2-1 3 32 0 32h-3c-8 3 25 5 17 0zm-9-46c7 1 9-10 0-10-3 0-5 3-5 6 0 2 2 4 5 4z"/><path d="m264 442-1 1c-8 9-2-29-6-31-6-9-31-6-30 7 1 3 8 4 9 0 1-3-1-6 2-8 14-7 12 10 12 18-38-9-27 35 0 15 0 7 17 6 14-2zm-23 3c-14-3-5-21 9-14v10c-2 2-5 4-9 4z"/><path d="M307 401c-4 0-8 3-10 8-24-10-40 19-17 28-6 1-10 10-1 12-28 10 0 24 18 19 26-9 10-24-11-25-2 0-8-2-4-5 19 4 34-17 17-29 4-5 4-2 10 1 5 0 5-9-2-9zm-18 51c14 0 19 11 3 14-15 2-26-11-10-16l7 2zm6-20c-11 12-21-8-15-19 11-13 21 10 15 19z"/><path d="M352 401c-4 0-7 3-9 8-24-10-40 19-18 28-5 1-9 10-1 12-28 10 0 24 19 19 25-9 9-24-11-25-2 0-8-2-4-5 19 4 34-17 17-29 3-5 3-2 9 1 5 0 5-9-2-9zm-18 51c14 0 20 11 4 14-15 2-27-11-11-16l7 2zm7-20c-11 12-22-8-16-19 12-13 22 10 16 19zm27-33c7 1 9-10 0-10-7-1-9 10 0 10zm99 46h-2c-3 1-1-29-2-35 2-5-8-1-13 1 0 0-3 1 0 2h3c2-1 3 32 0 32h-2c-9 3 25 5 16 0z"/><path d="M377 445h-2c-3 1-1-29-2-35 2-5-8-1-12 1-1 0-4 1-1 2h3c2-1 3 32 0 32h-2c-9 3 25 5 16 0zm66 0h-2c-3 1-1-31-1-48-2-8 3-15-6-12l-7 3c-1 0-4 2-1 3h3c3-2 1 20 2 20-43-23-39 62 0 31-4 7 19 8 12 3zm-16-3c-27 13-21-49 4-27v24l-4 3zm31-43c7 1 9-10 0-10-7-1-9 10 0 10zm245 46-3-1c-4 1-3-18-5-33 0-13-5-19 4-20 4-3-2-4-8-3-6-1-6 2-7 4l-15 38-17-40c2-4-22-4-14 1 9 0 4 10 3 24-2 17 1 26-5 29l-2 1c-10 3 23 5 15 0l-3-1c-7 1 1-41 0-43 25 59 15 56 38 0-1 2 7 44 1 43l-2 1c-10 4 29 5 20 0z"/><path d="m747 442-1 1c-8 9-1-29-6-31-5-9-31-6-29 7 0 3 7 4 9 0 0-3-1-6 1-8 15-7 12 10 12 18-38-9-27 35 1 15 0 7 17 6 13-2zm-22 3c-14-3-5-21 8-14v10c-2 2-5 4-8 4zm70 0h-2c-6-1 5-45-7-37-1 1-13 2-8 5 8-3 3 23 4 26-24 18-16-19-17-31-1-3-10 2-13 3 0 0-4 1 0 2 12-5-10 57 31 29-4 8 19 7 12 3zm32-38c-5 0-10 4-11 10l-1-8c0-2-1-2-5-1-1 1-12 2-7 5h3c1-1 2 32-1 32h-2c-9 4 29 5 19 0-7 0-6-1-6-9 1-12-3-18 6-24 2 0 4 0 4 3 2 17 18-7 1-8zm29 38h-2c-4 1-1-29-2-35 1-5-9-1-13 1 0 0-3 1 0 2h3c1-1 3 32-1 32h-2c-8 3 25 5 17 0zm-9-46c7 1 9-10 0-10-3 0-5 3-5 6 0 2 2 4 5 4z"/><path d="M895 435c-1 0-1-1-2 1-5 12-13 9-22 9 25-39 34-38 10-37-12 2-13-3-18 1 1 1-5 15 1 10l2-3c2-7 14-5 19-5-1 3-34 40-22 37h30c0-3 5-12 2-13z"/><path d="M917 445h-2c-3 1-1-29-1-35 1-5-9-1-13 1-1 0-3 1-1 2h3c2-1 3 32 0 32h-2c-9 3 25 5 16 0zm-9-46c8 1 9-10 0-10-3 0-5 3-4 6 0 2 2 4 4 4zm47 11c-27-13-44 22-22 36 27 13 45-22 22-36zm1 26c-10 26-32-6-22-22 14-14 25 9 22 22zm77-6c-1 0-1-1-2 1-3 5-4 12-10 13-5 0-16 2-16-3 1-4-3-51 2-50h3c10-4-30-6-20 0 9-1 4 13 5 30-1 16 4 23-5 24-8 4 16 2 26 3 7 0 4-2 10 1 1 0 4 1 4-2s7-16 3-17zm41-4c5-28-40-23-36 4 0 16 18 24 31 15 4 0 10-14 3-10-6 14-27 7-26-8 3-1 27 1 28-1zm-10-2h-18c2-26 28-10 18 0zm58-16s-20-2-13 2l2 1c7-2-9 29-8 30-1-3-13-28-11-29 2-2 8-1 5-4-1 0-26-2-19 2l2 1 2 3 12 30 2 4c12 7 17-34 24-37l1-1s3 0 1-2zm12-9c7 1 8-10 0-10-3 0-6 3-5 6 0 2 2 4 5 4zm10 47-1-1h-2c-4 1-1-29-2-35 2-5-9-1-13 1 0 0-3 1 0 2h3c1-1 3 32-1 32h-2c-8 3 21 5 18 1zM105 488s35 5 48 5c24 0 47-3 47-3s-36 10-46 10c-23 0-49-12-49-12zm95 2s14-6 33-6c22 0 63 11 63 11s-42-6-62-6l-34 1z"/><path d="M295 495s37 11 63 11c52 0 103-25 103-25s-42 17-105 17c-48 0-61-3-61-3zm349-9c67 13 109-23 141-21 16 3 9 6 12 16 31-1 62-9 95-8 81-4 160 20 241-1-17 9-36 12-55 13-163 6-105-13-283 5-11 1-3-7-23-7-23 0-62 25-129 3h1zM490 325c-1-6-12-3-5-10 8-8 9-20 15-30 4-10 13-17 16-28 5-10 14-14 12-26-2-3-8 1-12 0-3 1-4 3-7 2-6-2-8-18-9-22 4-13 6-31 12-36 4-2 2-6 4-9 4 0 10 2 8-5 2-4 1-9 0-14s-5-10-3-15c5-10 24-13 31-4 2 4 0 8 2 13v18c0 8 1 6 7 6 4 7 12 10 15 19 7 7 9 17 11 28 5 4 5-19-1-26 4-7-2-6-2-12 3-3 7-2 11-2 3-1 6-4 11-4 15 3 29-2 33 3 1 6 4 10 6 15-1 14-12 8-16 17-6 8-1 11-2 18 1 3-2 5-2 9 1 4 0 9 2 14l-1 9c-1 2-2 3-1 6 2 6-1 12 0 19-1 4 0 8 1 12l-2 6c1 7 2 10-1 18l-3 20c-2 13 2 14 1 24 1 3-2 5-3 8 0 7-4 13-5 20-10 19-13 24-16 41-1 11 12 16 12 27-1 61 44 75 6 72-5 1-4-21-6-25-1-14-5-28-13-40-11-22-9 37-11 41 2 6 7 22-2 22-4-1-13-2-11-9 2-8 5-14 6-22l-2-45c0-2 0-3 2-5 2-4 7-8 5-14l-16-24c-17-28-10-19-19-1-3 10-9 19-11 31-2 21-2 42 2 62-2 10 10 23 4 25-19 1-15-6-14-21l-3-24c3-11-4-22-4-33 1-7 5-11 5-18 2-10 7-18 7-28-3-34-11-42-15-3-1 4-4 15-8 11 0-16-7 8-7 12 1 16-4 32-8 48-2 10-2 19 0 30l-2 10c1 12 1 15-11 12-12-1-9-8-5-16 1-2 4-3 3-6 8-24 8-35 8-56 0-14 9-22 7-36v-5c3-9-3-18-3-28 0-16-7-31-3-46zm91 73c5-7-2-16 2-25 1-4 5-8 8-12-6-12-9-24-10-38 0-6 3-9-6-6-2 0-4-5-6-1l-3 12c-1 1-3-1-4 2 0 1-11 10-8 4l8-8 4-3c1-6 4-11 6-17 1-11-6 2-9 5-3 5-8 10-9 17-2 6-6 9-7 15 1 4-3 3-4 6 2 10-11 3-16 7-8 4 4 8 9 7 2 3 5 4 9 2 2-2-1-5 2-7 3 0 2-6 4-4-2 6 0 13 1 19 4 2 8 26 13 21 2-2-2-4-1-7 0-1 4-1 4 1-4 1-1 7 0 11-2 7 18 30 20 35 5 9 4 19 10 27 10 15 11 32 15 49 0 2 2 0 4 1 7 5 6-2 2-7l-8-25c-2-9-4-16-3-25 0-1 1-3-1-3-3 0 0 4-2 6-2 0-4-3-7-3-6-6-3-16-8-24-2-3-2-6-5-9 2-5 4-2 4 3l5 10c0 4 0 8 3 12 4 1 8-1 3-7l-13-28c-2-1-5-1-6-5 1-2 3 4 5 0-1-3 0-9-5-8zm12-52c0 5 5 2 8 6 7 6 10-3 13-9 4-6 5-11 7-19l3-19-1-15v-22c2-3 2-6 0-10-3-3-6 24-8 25-8 22-20 40-22 63zm25-113c0-6 1-13-7-5l-13 10c-4 4 1 10 1 16-1 7 2 14 2 22l-1 3c-3 4 2 7-1 12-4 7 0 14-10 14-3 8-5 16-3 25 0 3-1 12 3 13 10-42 32-72 29-110zm-127 93c2 5 5 11 11 12 0 2-4 1-5 0-10-13-5 10-4 16 1 11 1 21 4 32 3 4-2 16 2 14 12-9 17-25 18-41-4-6-11 0-13-3 5-9 2-12 2-21-2-3-6-2-10-4-1-2-2-12-5-5zm14-33c-1 7-4 14-4 22 1 2 4 1 6 1 5-1 4-7 5-11 10-45 20-39 22-60-1-12-9 10-12 13l-16 31c0-7 7-13 7-20-9 5-18 31-20 36 0 2 5 3 3 5-2 0-6-3-4 3 0 7 5 4 7-1 2-6 2-13 6-19zm46-33c0 21 28 51 30 39-1-4-5-8-7-13-3-8-13-48-23-26zm82-64c9-1-2-8-7-7-7-4 9-1 10-4s2-12 0-13c0-2-8-3-6 1 1 1 3 2 1 3s-10 1-5-4c-1-2-4-1-6-1-3 1-4 4-5 7-2 10-11 22 5 15 5-1 8 2 13 3zm-37 55c-1-3 0-9-3-10-12 2-16 10-24 18-1 7 4 9 10 5s17-6 17-13zm1-59c12 1 11-12 15-20-2-7-13 0-17 2-3 0-5-2-7 1-2 1 1 3 2 5-1 5 0 13 7 12zM492 456c-2-9-3 8-2 12-2 7-3 15-6 22-3 5 3 10 7 12 8-1 2-13 3-20-1-5 2-8-2-13v-13zm94 26c1-5-1-8-4-13 0-2 0-6-3-5-2 9 1 19 0 29 0 6-3 11-3 17 1 3 3-1 5-1 6 1 4-24 5-27zm-35-167c5-1 6-10 8-13 1-4 4-7 4-11-2-1-6-12-8-5-5 22-15 29-4 29zm38-54c-5 2-17 6-17 10 0 3 1 10 5 8 10-7 15-3 17-7-1-3-1-9-5-11zm-47-97c8 1 12-4 10-12l-7-1c-3-3-6 2-11 2-9-3-1 14 8 11zm-24 66c7 0 26-12 12-16l-11 4c-4 4-12 10-1 12zm10 243c0 1 1 9 3 3v-20c-3-3-5-6-4-10-1-8 5-13 4-21 1-3 4-7 2-10-3-1-4 14-6 19-8 14 2 25 1 39zm6-234c5 1 9-5 13-8 2-2 8-2 5-5l-10 3h-11c-3 3-3 11 3 10zm3 263c-2-13-9-21-7-1v8c0 2-2 6 1 7 2 0 1-3 3-4 6-1 3-6 3-10zm-16-134c-2-12-4 0-5 6-2 5-12 33 0 15 5-6 4-13 5-21zm22-150c6 1 0-6 3-7 2 12 12 3 5 1l1-2c2-2-2-1-2-3l-1-2c-6 1-20 11-6 13zm49 58c-5-1-22 6-14 11 6-3 9-6 18-4 3-3 0-9-4-7zm28 79c-1-8-2-13-7-1 0 1 3 2 1 3-2 4-7 4-8 8 0 5 2-1 5 0 2 4 9-6 9-10zm-77-207c14 6 8-11-6-7-12 7-5 14 6 7zm21 60c-3 8 13 3 6-6-3-2-6-9-11-5-3 4 3 1 3 3 0 1-4 2-1 3l2 1c0 2-2 2 1 4zm26 202c0 1 4 18 7 11 2-5 1-10-2-15-4-10-5-1-5 4zm-17-99c1 5 3 5 8 1 2-1 4-1 6-4 1-4-5-3-9-4-4-2-5 3-5 7zm13-100c0-16-13-10-11-6 2 3 10 15 11 6zm-60-51c3 10 22 13 16 5-3-1-9 1-11-4-1-1-2-11-5-6v5zm57 138c2 6 4 6 8 2 8-4 4-10-4-6-2 0-4 2-4 4zm-35 18c-3 0-4 1-5 4-4 9 2 8 6 3 6-4 6-6-1-7zm43 78c0-5-2-12-7-5 1 7 3 22 7 5zm23-175c-3-6-6 3-10 4-3-1-7 5-7 7 3 0 15-8 17-11zm-47 78c-2-8-6 2-7 5s-6 12-2 11c2-6 9-9 9-16zm-63 28c2 9 8-9 2-8-9 0-9 14-2 6v2zm95-126c2-1 12-5 9-9-3 2-7 4-13 3-6 2-2 5 4 6zm-8 31c-2-1-13 10-6 9 3-1 15-7 6-9zm-11-11c5-2-1-6-3-8-3-2-11 8 3 8zm11 70c0-5-9-2-10 1-2 5 9 3 10-1zm-77-23c1 3 4-5 6-6 10-18-6-4-6 6zm41 15c-3-11-9 8-3 7l3-7zm-72 221c-3-2-8 6-4 6 4-1 14-5 4-6zm58-373c-7 0-3 7 1 6 6-2 4-5-1-6zm42 104c-1-3-6 1-7 4 1 5 6 0 7-4zm24 135c-3 1-5 7-1 7 4-1 5-5 1-7zm-58-95c0-2-5-9-6-2 1 2 6 6 6 2zm-20-132c0 5 6 0 7-2-1-5-6-1-7 2zm1 63c-1-4-2 2-5 5 2 8 5-1 5-5zm16 34c2-1 12-5 7-6-1 0-11 4-7 6zm51-38c-3-1-6 3 0 3 1 0 9-2 5-3h-5zm-58-29c-6 1 4 7 6 5 1-1 0-2-2-2-2-1-2-3-4-3zm33 62c2 0 6-2 3-4-2-1-9 2-3 4zm23 53c-3 0-3 4 0 5 3 0 4-4 0-5zm-19-41c-1-5-6 5-4 7 2 0 3-5 4-7zm7-18c-1-1-6 2-2 3 3 0 10-2 2-3zm-67 167c0 5 4 1 3-3-1-2-3 0-3 3zm35-126c0-1-1-7-3-3 0 2 2 8 3 3zm18-44c-2 0-3 3 0 4 4 0 3-3 0-4zm33 8c-2-1-4 2-6 3-2 3 5 0 6-3zm-52-93c0-3-5-3-4 0 1 2 3 2 4 0zm-21 311c1 4 5-2 2-4-1 0-2 1-2 4zm-8-278c4 0-5-6-3-2l3 2zm36-1c-1 3 5-1 3-3-1-1-3 1-3 3zm-24 1c3 0 0-4-3-3 0 2 1 3 3 3zm28 56c1-2-2-5-2-1 0 1 2 4 2 1zm3 6c0-2-4-2-3 1 1 1 3 2 3-1zm16 122c4 6 3 2 3-2-1-7-4 0-3 2zm-11-18c-2 0-1 2-3 3s-7 1-4 3c3-1 9-3 7-6zm9 67c-1-5-4-5-3 0 0 4 4 3 3 0zm-8-34c2 4 3-4 3-5-2-4-3 5-3 5zm-16-20c2-2 3-1 4-1 4-1 1-2 0-2-2-1-6 2-4 3zm11 9c0-3-4 2-3 3 1 4 3-3 3-3zm7-6c-3 1-1 5 0 5 0-2 2-5 0-5zm7 23c3-5-3-5-2 0h2zm-14-25c1-4-1-3-2-1 0 3 3 4 2 1zm-19-2c-2 2 1 6 1 2l-1-2zm60-81c0 7 4-3 5-3-2-3-6 0-5 3zm-96 109c-1-3-3 1-3 2 1 4 2-1 3-2zm-5-12c-1 3 3 0 2-1 0-4-2 1-2 1zm127-185c-3-1-5 1-2 2l2-2zm-35-1c3 6 6 13 9 2 1-4-1-5-3-5-3-3 5-3 1-4-3 0-7 4-7 7zM490 488c-2 2 2 4 2 2l-2-2zm53-330-1-6c1 5-4 8 1 6zm-4-14c-4-1-6 3-2 3 2 0 3-2 2-3zm7 2c3 0 3-2 1-2-5-1-4 2-1 2z"/></g></svg>